<svg xmlns="http://www.w3.org/2000/svg" viewBox="0 0 687.9 723.81"><defs><style>.cls-1{fill:#100a09;}.cls-2{fill:#3bbcb0;}</style></defs><g id="Capa_2" data-name="Capa 2"><g id="Capa_1-2" data-name="Capa 1"><rect class="cls-1" width="687.9" height="723.81"/><path class="cls-2" d="M614.5,64.34V659.47H73.4V64.34Zm16.08-16.09H57.33v627.3H630.58V48.25Z"/><path class="cls-2" d="M161.08,353.78V192.38H230v21.76H184.2v47.38h39.9v21.76H184.2v47.37H230v23.13Z"/><path class="cls-2" d="M245,353.78V192.38h23.13V330.65h45.79v23.13Z"/><path class="cls-2" d="M348.13,353.78V214.14H321.38V192.38H398v21.76H371.25V353.78Z"/><path class="cls-2" d="M405.7,185.12l20.4-32h24.48l-29.92,32Zm3.17,168.66V192.38H432v161.4Z"/><path class="cls-2" d="M449.3,230.46a41.2,41.2,0,0,1,3.4-17.23,36.2,36.2,0,0,1,9.07-12.47,38.24,38.24,0,0,1,12.35-7.25,41.16,41.16,0,0,1,40.46,7.25,37.85,37.85,0,0,1,8.84,12.47,41.2,41.2,0,0,1,3.4,17.23v85.23q0,10.2-3.4,17.46a35.78,35.78,0,0,1-8.84,12A38.74,38.74,0,0,1,502,352.64a40.11,40.11,0,0,1-27.88,0,36.16,36.16,0,0,1-12.35-7.48,34.3,34.3,0,0,1-9.07-12q-3.4-7.25-3.4-17.46Zm23.12,85.23c0,5.6,1.55,9.71,4.65,12.36a17.21,17.21,0,0,0,22,0c3.09-2.65,4.64-6.76,4.64-12.36V230.46q0-8.39-4.64-12.36a17.24,17.24,0,0,0-22,0q-4.65,4-4.65,12.36Z"/><path class="cls-2" d="M184,370V492.84q0,16.49-10.39,27.56A38.72,38.72,0,0,1,161.3,529a40.56,40.56,0,0,1-16.6,3.17q-11.08,0-18.42-4.86a61.44,61.44,0,0,1-11.63-9.6l18.08-14.46a22.89,22.89,0,0,0,5.75,4.18,14.8,14.8,0,0,0,6.89,1.69,17.18,17.18,0,0,0,4.75-.79,13.24,13.24,0,0,0,5.2-3.05,14.69,14.69,0,0,0,4.06-5.76,25.57,25.57,0,0,0,1.58-9.82V370Z"/><path class="cls-2" d="M206.36,530.79V370h23V530.79Z"/><path class="cls-2" d="M251.77,530.79V370h22.14l29.59,85.16H304L333.32,370h22.37V530.79H332.64V433h-.45L309.37,502.1H297.85L275.26,433h-.45v97.82Z"/><path class="cls-2" d="M451.92,370v124.7a36.74,36.74,0,0,1-2.83,14.56,37.14,37.14,0,0,1-8,11.87,38.51,38.51,0,0,1-12,8.13,36.07,36.07,0,0,1-14.45,2.94,35.29,35.29,0,0,1-14.35-2.94,39.17,39.17,0,0,1-20-20,35.61,35.61,0,0,1-2.94-14.56V370h23V492.39q0,8.58,4.07,12.65a14.76,14.76,0,0,0,20.33,0q4.06-4.07,4.07-12.65V370Z"/><path class="cls-2" d="M544.58,416.26H521.53v-5.2a24.59,24.59,0,0,0-3.72-13.66q-3.73-5.77-12.54-5.77a14.55,14.55,0,0,0-7.68,1.81,15.09,15.09,0,0,0-4.74,4.52,19,19,0,0,0-2.49,6.66,43.79,43.79,0,0,0-.68,7.8,77.81,77.81,0,0,0,.34,7.9,15.11,15.11,0,0,0,1.69,5.65,12.59,12.59,0,0,0,4,4.29,36.06,36.06,0,0,0,7.12,3.62l17.61,7a43.88,43.88,0,0,1,12.43,6.89,29.8,29.8,0,0,1,7.45,9.15,42.56,42.56,0,0,1,3.39,12.31,122.29,122.29,0,0,1,.91,15.7,82.42,82.42,0,0,1-2,18.86,39.71,39.71,0,0,1-6.55,14.8,32.54,32.54,0,0,1-12.42,9.94q-7.7,3.62-18.75,3.62a41.16,41.16,0,0,1-15.59-2.94,37.09,37.09,0,0,1-12.42-8.13A39.62,39.62,0,0,1,468.56,509a36.73,36.73,0,0,1-3.05-15v-8.58h23v7.22A18.86,18.86,0,0,0,492.28,504c2.49,3.39,6.66,5.08,12.54,5.08q5.87,0,9.15-1.69a12.21,12.21,0,0,0,5.08-4.86A17.92,17.92,0,0,0,521.2,495q.33-4.41.33-9.83a97.68,97.68,0,0,0-.45-10.39,18,18,0,0,0-1.8-6.56,12.78,12.78,0,0,0-4.18-4.06,55,55,0,0,0-6.9-3.39L491.71,454q-14.9-6.09-20-16.15t-5.08-25.19a58.72,58.72,0,0,1,2.48-17.17,39,39,0,0,1,7.46-14,34.25,34.25,0,0,1,12.09-9.38,40.39,40.39,0,0,1,17.51-3.5,38.39,38.39,0,0,1,15.7,3.16,40.51,40.51,0,0,1,12.31,8.37q10.38,10.83,10.39,24.84Z"/><path class="cls-2" d="M157.16,581.51v3a10.68,10.68,0,0,1-.84,4.2A11.75,11.75,0,0,1,154,592.2a11.16,11.16,0,0,1-3.46,2.45,10.11,10.11,0,0,1-4.27.91,15.35,15.35,0,0,1-4-.54,9.41,9.41,0,0,1-3.63-1.88,10.32,10.32,0,0,1-2.65-3.46,12.2,12.2,0,0,1-1.05-5.42V557.91a11.6,11.6,0,0,1,.81-4.37,10.4,10.4,0,0,1,2.28-3.5,10.83,10.83,0,0,1,3.53-2.32,11.92,11.92,0,0,1,4.54-.84A10.4,10.4,0,0,1,154,550a11.26,11.26,0,0,1,2.32,3.67,12.34,12.34,0,0,1,.84,4.6V561H150.3v-2.28a5.55,5.55,0,0,0-1.14-3.5,3.7,3.7,0,0,0-3.1-1.48c-1.7,0-2.83.53-3.39,1.58a8.47,8.47,0,0,0-.84,4v24.47a6.31,6.31,0,0,0,.91,3.5A3.57,3.57,0,0,0,146,588.7a5.13,5.13,0,0,0,1.44-.23,4.36,4.36,0,0,0,1.45-.78,4.07,4.07,0,0,0,1-1.48,5.94,5.94,0,0,0,.4-2.35v-2.35Z"/><path class="cls-2" d="M162.34,558.58a12.26,12.26,0,0,1,1-5.11,10.84,10.84,0,0,1,2.7-3.7,11.22,11.22,0,0,1,3.66-2.15,12.21,12.21,0,0,1,12,2.15,11.2,11.2,0,0,1,2.62,3.7,12.26,12.26,0,0,1,1,5.11v25.28a12.15,12.15,0,0,1-1,5.18,10.6,10.6,0,0,1-2.62,3.56,11.47,11.47,0,0,1-3.73,2.22,11.92,11.92,0,0,1-8.27,0A10.58,10.58,0,0,1,166,592.6a10.28,10.28,0,0,1-2.7-3.56,12.15,12.15,0,0,1-1-5.18Zm6.85,25.28a4.57,4.57,0,0,0,1.38,3.67,5.14,5.14,0,0,0,6.53,0,4.6,4.6,0,0,0,1.37-3.67V558.58a4.57,4.57,0,0,0-1.37-3.66,5.11,5.11,0,0,0-6.53,0,4.54,4.54,0,0,0-1.38,3.66Z"/><path class="cls-2" d="M191.38,595.16V547.28H198l8.81,25.35h.13l8.74-25.35h6.66v47.88h-6.86V566h-.13l-6.8,20.58H205.1L198.37,566h-.13v29.12Z"/><path class="cls-2" d="M229,595.16V547.28h6.86v47.88Z"/><path class="cls-2" d="M242.48,595.16V547.28h10.15q5.92,0,9,3.23t3.06,9.15V582q0,6.74-3.26,9.92t-9.38,3.2Zm6.86-41.42v35h3.16c1.92,0,3.29-.48,4.1-1.44a7,7,0,0,0,1.21-4.54V559.66a7.29,7.29,0,0,0-1.14-4.38c-.77-1-2.16-1.54-4.17-1.54Z"/><path class="cls-2" d="M267.22,595.16l10.69-47.88h5.72l10.68,47.88h-6.85l-2-10.29h-9.35l-2,10.29Zm16.94-16.75-3.36-17.34h-.13l-3.36,17.34Z"/><path class="cls-2" d="M307.09,595.16l10.69-47.88h5.71l10.69,47.88h-6.86l-2-10.29H316l-2,10.29ZM324,578.41l-3.36-17.34h-.13l-3.37,17.34Z"/><path class="cls-2" d="M337.54,595.16V547.28h11q12.1,0,12.1,14.06a17.6,17.6,0,0,1-1.31,7.19,10.17,10.17,0,0,1-4.6,4.77l7.39,21.86h-7.26l-6.39-20.44h-4.1v20.44Zm6.86-41.42v14.93h3.9a6.8,6.8,0,0,0,2.89-.51,3.89,3.89,0,0,0,1.68-1.44,6.52,6.52,0,0,0,.74-2.33,24.33,24.33,0,0,0,0-6.38,6.42,6.42,0,0,0-.8-2.39c-.86-1.25-2.47-1.88-4.85-1.88Z"/><path class="cls-2" d="M369.48,595.16V553.74h-7.93v-6.46h22.72v6.46h-7.93v41.42Z"/><path class="cls-2" d="M387.3,595.16V547.28h20.44v6.46H394.16v14H406v6.46H394.16v14h13.58v6.86Z"/><path class="cls-2" d="M434.36,561.07H427.5v-1.55a7.36,7.36,0,0,0-1.1-4.06,4.12,4.12,0,0,0-3.74-1.72,4.11,4.11,0,0,0-3.69,1.88,5.6,5.6,0,0,0-.75,2,13.24,13.24,0,0,0-.2,2.31,21.73,21.73,0,0,0,.11,2.36,4.29,4.29,0,0,0,.5,1.68,3.76,3.76,0,0,0,1.18,1.28,10.48,10.48,0,0,0,2.11,1.07l5.25,2.09a12.79,12.79,0,0,1,3.69,2.05,8.72,8.72,0,0,1,2.22,2.72,12.6,12.6,0,0,1,1,3.66,36.25,36.25,0,0,1,.27,4.68,24.81,24.81,0,0,1-.6,5.61,12.11,12.11,0,0,1-1.95,4.41,9.74,9.74,0,0,1-3.7,3,13,13,0,0,1-5.58,1.08,12.24,12.24,0,0,1-4.64-.87,11,11,0,0,1-3.7-2.43,11.62,11.62,0,0,1-2.45-3.59,10.86,10.86,0,0,1-.91-4.47v-2.56h6.86v2.15a5.61,5.61,0,0,0,1.11,3.4,4.31,4.31,0,0,0,3.73,1.51,6.11,6.11,0,0,0,2.72-.5,3.58,3.58,0,0,0,1.51-1.45,5.35,5.35,0,0,0,.64-2.25c.07-.87.1-1.85.1-2.93a29.1,29.1,0,0,0-.13-3.09,5.27,5.27,0,0,0-.54-2,3.88,3.88,0,0,0-1.24-1.21,17.07,17.07,0,0,0-2-1l-4.91-2c-3-1.21-4.94-2.82-5.95-4.81a16.53,16.53,0,0,1-1.51-7.5,17.54,17.54,0,0,1,.73-5.11,11.91,11.91,0,0,1,2.22-4.17,10.35,10.35,0,0,1,3.6-2.79,12.07,12.07,0,0,1,5.21-1,11.46,11.46,0,0,1,4.67.94,12,12,0,0,1,3.67,2.49,10.4,10.4,0,0,1,3.09,7.4Z"/><path class="cls-2" d="M436.38,595.16l10.69-47.88h5.71l10.69,47.88h-6.85l-2-10.29h-9.35l-2,10.29Zm16.94-16.75L450,561.07h-.13l-3.37,17.34Z"/><path class="cls-2" d="M466.57,595.16V547.28h6.58l10.36,28.85h.13V547.28h6.86v47.88h-6.45l-10.49-28.78h-.14v28.78Z"/><path class="cls-2" d="M493.59,595.16l10.69-47.88H510l10.69,47.88h-6.86l-2-10.29h-9.35l-2,10.29Zm17-16.75-3.36-17.34H507l-3.36,17.34Z"/><path class="cls-2" d="M524.05,595.16V547.28h6.86v41h13.58v6.86Z"/></g></g></svg>